<svg width="37" height="33" viewBox="0 0 37 33" fill="none" xmlns="http://www.w3.org/2000/svg">
<path fill-rule="evenodd" clip-rule="evenodd" d="M8.47464 5.07317C9.06491 4.68743 9.69137 4.34895 10.3481 4.06338C7.76666 1.64683 4.55079 -0.0144616 0.00338672 9.4905e-05L0 2.00003C3.63745 1.98839 6.274 3.17296 8.47464 5.07317ZM25.6389 22.0202C25.2309 22.5624 24.7768 23.0705 24.2822 23.5393C26.8156 25.1263 29.8614 26.2332 33.6678 26.5775L28.8547 31.2855C28.4589 31.6726 28.4503 32.3057 28.8356 32.6996C29.2208 33.0935 29.8539 33.0989 30.2497 32.7118L36.6992 26.4031C37.095 26.016 37.1036 25.3829 36.7184 24.989L30.4408 18.5706C30.0556 18.1767 29.4225 18.1712 29.0267 18.5584C28.6309 18.9455 28.6224 19.5786 29.0076 19.9725L33.4837 24.549C30.3083 24.2119 27.7643 23.2956 25.6389 22.0202Z" fill="#B8B8B8"/>
<path d="M16.7543 19.1364V18.331C16.7543 17.6847 16.8935 17.0881 17.1719 16.5412C17.4553 15.9943 17.8654 15.5543 18.4023 15.2212C18.9393 14.8881 19.593 14.7216 20.3636 14.7216C21.1541 14.7216 21.8178 14.8857 22.3548 15.2138C22.8967 15.5419 23.3068 15.9794 23.5852 16.5263C23.8636 17.0732 24.0028 17.6747 24.0028 18.331V19.1364C24.0028 19.7827 23.8612 20.3793 23.5778 20.9261C23.2994 21.473 22.8892 21.913 22.3473 22.2461C21.8054 22.5792 21.1442 22.7457 20.3636 22.7457C19.5831 22.7457 18.9244 22.5792 18.3874 22.2461C17.8505 21.913 17.4428 21.473 17.1644 20.9261C16.891 20.3793 16.7543 19.7827 16.7543 19.1364ZM19.3494 18.331V19.1364C19.3494 19.4197 19.419 19.7006 19.5582 19.979C19.7024 20.2525 19.9709 20.3892 20.3636 20.3892C20.7763 20.3892 21.0472 20.255 21.1765 19.9865C21.3107 19.718 21.3778 19.4347 21.3778 19.1364V18.331C21.3778 18.0327 21.3157 17.7443 21.1914 17.4659C21.0671 17.1875 20.7912 17.0483 20.3636 17.0483C19.9709 17.0483 19.7024 17.1875 19.5582 17.4659C19.419 17.7443 19.3494 18.0327 19.3494 18.331ZM8.75994 10.3963V9.59091C8.75994 8.93466 8.90163 8.3331 9.18501 7.78622C9.47337 7.23935 9.88601 6.80185 10.4229 6.47372C10.9599 6.1456 11.6087 5.98153 12.3693 5.98153C13.1598 5.98153 13.8235 6.1456 14.3604 6.47372C14.9023 6.80185 15.3125 7.23935 15.5909 7.78622C15.8693 8.3331 16.0085 8.93466 16.0085 9.59091V10.3963C16.0085 11.0526 15.8668 11.6516 15.5835 12.1935C15.305 12.7354 14.8949 13.168 14.353 13.4911C13.8111 13.8143 13.1499 13.9759 12.3693 13.9759C11.5888 13.9759 10.93 13.8118 10.3931 13.4837C9.85618 13.1555 9.44851 12.7205 9.1701 12.1786C8.89666 11.6367 8.75994 11.0426 8.75994 10.3963ZM11.3849 9.59091V10.3963C11.3849 10.6946 11.4545 10.978 11.5938 11.2464C11.733 11.5149 11.9915 11.6491 12.3693 11.6491C12.782 11.6491 13.0529 11.5149 13.1822 11.2464C13.3164 10.978 13.3835 10.6946 13.3835 10.3963V9.59091C13.3835 9.29261 13.3214 9.00426 13.1971 8.72585C13.0728 8.44744 12.7969 8.30824 12.3693 8.30824C11.9766 8.30824 11.7131 8.45241 11.5788 8.74077C11.4496 9.02415 11.3849 9.30753 11.3849 9.59091ZM10.0277 22L20.5277 6.72727H22.6456L12.1456 22H10.0277Z" fill="#B8B8B8"/>
</svg>
